<?xml version="1.0" encoding="UTF-8"?>
<svg id="_Слой_1" data-name="Слой 1" xmlns="http://www.w3.org/2000/svg" viewBox="0 0 101.09 117.76">
  <defs>
    <style>
      .cls-1 {
        fill: #fff;
      }
    </style>
  </defs>
  <path class="cls-1" d="M.49,63.97v-6.37c3.12-1.12,6.28-2.06,9.47-2.78,3.92-.87,7.82-1.37,11.71-1.37s7.79.5,11.71,1.37c3.2.71,6.35,1.66,9.48,2.77,3.1-1.11,6.26-2.06,9.47-2.77,3.92-.87,7.82-1.37,11.71-1.37s7.79.5,11.71,1.37c2.19.49,4.36,1.09,6.52,1.77v6.29c-2.63-.91-5.23-1.68-7.81-2.25-3.45-.77-6.93-1.2-10.43-1.2s-6.97.44-10.42,1.21c-3.73.83-7.18,2-10.76,3.33-3.51-1.34-7.09-2.51-10.76-3.33-3.45-.77-6.93-1.2-10.43-1.2s-6.97.44-10.42,1.21c-3.49.78-7.04,1.91-10.63,3.28l-.12.05H.49ZM65.81,91.7c.56,0,.98-.4.98-.97s-.42-.96-.98-.96-.98.38-.98.96.43.97.98.97h0ZM4.99,75.85H.59v6h1.67v-4.65h2.72v-1.34h0ZM8.39,81.97c1.92,0,3.33-1.32,3.33-3.12s-1.41-3.12-3.33-3.12-3.33,1.32-3.33,3.12,1.41,3.12,3.33,3.12h0ZM8.39,80.57c-.91,0-1.62-.68-1.62-1.71s.71-1.71,1.62-1.71,1.62.68,1.62,1.71-.71,1.71-1.62,1.71h0ZM15.77,81.97c1.1,0,2-.4,2.58-1.13l-1.08-.98c-.38.45-.84.7-1.41.7-.99,0-1.67-.69-1.67-1.71s.69-1.71,1.67-1.71c.57,0,1.04.25,1.41.7l1.08-.98c-.58-.73-1.47-1.13-2.58-1.13-1.9,0-3.3,1.29-3.3,3.12s1.4,3.12,3.3,3.12h0ZM23.27,75.85l-1.45,2.9-1.4-2.9h-1.79l2.33,4.32c-.22.33-.46.46-.8.46-.18,0-.37-.04-.6-.1l-.4,1.25c.37.15.72.22,1.06.22.9,0,1.68-.51,2.21-1.52l2.48-4.64h-1.65ZM31.2,80.51v-4.65h-4.83l-.07,1.85c-.06,1.6-.26,2.78-1.02,2.8h-.21v2.55h1.56v-1.21h3.84v1.21h1.55v-2.55h-.81ZM27.79,77.85l.03-.65h1.72v3.31h-2.27c.35-.51.48-1.48.52-2.66h0ZM37.73,81.85h1.77l-2.66-6h-1.67l-2.65,6h1.73l.47-1.17h2.54l.47,1.17h0ZM35.22,79.44l.77-1.92.77,1.92h-1.54ZM43.14,75.85h-2.74v6h1.7v-1.57h1.05c1.64,0,2.66-.85,2.66-2.21s-1.03-2.22-2.66-2.22h0ZM43.04,78.95h-.94v-1.76h.94c.7,0,1.05.33,1.05.88s-.35.87-1.05.87h0ZM49.79,81.97c1.11,0,2-.4,2.58-1.13l-1.08-.98c-.38.45-.84.7-1.41.7-.99,0-1.67-.69-1.67-1.71s.69-1.71,1.67-1.71c.57,0,1.04.25,1.41.7l1.08-.98c-.58-.73-1.47-1.13-2.58-1.13-1.9,0-3.3,1.29-3.3,3.12s1.4,3.12,3.3,3.12h0ZM58.13,75.85h-5.35v1.34h1.84v4.65h1.67v-4.65h1.83v-1.34h0ZM63.5,78.72c.51-.26.81-.71.81-1.3,0-.99-.84-1.56-2.27-1.56h-2.91v6h3.08c1.54,0,2.38-.66,2.38-1.71,0-.72-.39-1.2-1.09-1.42h0ZM60.8,77.07h1.08c.48,0,.72.21.72.59s-.24.59-.72.59h-1.08v-1.18h0ZM62.14,80.64h-1.34v-1.23h1.34c.49,0,.74.2.74.61s-.25.62-.74.62h0ZM67.41,80.54v-1.1h2.66v-1.27h-2.66v-1.01h3.02v-1.31h-4.7v6h4.82v-1.31h-3.14ZM75.74,75.85v2.25h-2.31v-2.25h-1.7v6h1.7v-2.34h2.31v2.34h1.7v-6h-1.7ZM82.95,75.85v2.25h-2.31v-2.25h-1.7v6h1.7v-2.34h2.31v2.34h1.7v-6h-1.7ZM89.21,77.76h-1.39v-1.91h-1.67v6h2.84c1.56,0,2.53-.73,2.53-2.13,0-1.31-.85-1.95-2.3-1.95h0ZM92.17,81.85h1.67v-6h-1.67v6h0ZM88.87,80.64h-1.05v-1.66h1.05c.57,0,.93.21.93.78s-.37.88-.93.88h0ZM98.22,75.49c1.24,0,1.77-.5,1.77-1.4h-1.14c0,.4-.2.59-.63.59s-.61-.2-.62-.59h-1.14c0,.9.51,1.4,1.76,1.4h0ZM95.35,81.85h1.6l2.47-3.51v3.51h1.67v-6h-1.59l-2.48,3.52v-3.52h-1.67v6h0ZM3.51,93.89c1.11,0,2-.4,2.58-1.13l-1.08-.98c-.38.45-.84.7-1.41.7-.99,0-1.67-.68-1.67-1.71s.69-1.71,1.67-1.71c.57,0,1.04.25,1.41.7l1.08-.98c-.58-.73-1.47-1.13-2.58-1.13-1.9,0-3.3,1.29-3.3,3.12s1.4,3.12,3.3,3.12h0ZM9.89,93.89c1.92,0,3.33-1.32,3.33-3.12s-1.41-3.12-3.33-3.12-3.33,1.32-3.33,3.12,1.41,3.12,3.33,3.12h0ZM9.89,92.49c-.91,0-1.62-.68-1.62-1.71s.71-1.71,1.62-1.71,1.62.68,1.62,1.71-.71,1.71-1.62,1.71h0ZM20,92.43v-4.65h-1.67v4.65h-2.3v-4.65h-1.67v6h4.92v1.23h1.55v-2.57h-.82ZM21.84,93.77h1.6l2.47-3.51v3.51h1.67v-6h-1.59l-2.48,3.52v-3.52h-1.67v6h0ZM33.7,93.77h1.76l-2.66-6h-1.67l-2.65,6h1.73l.47-1.17h2.54l.47,1.17h0ZM31.19,91.36l.77-1.92.77,1.92h-1.54ZM37.2,87.77l-.09,2.39c-.05,1.35-.18,2.25-.87,2.25-.08,0-.15,0-.23-.03l-.09,1.39c.28.07.54.1.77.1,1.53,0,1.84-1.44,1.92-3.78l.03-.98h1.72v4.65h1.67v-6h-4.83ZM46.59,89.68h-1.39v-1.91h-1.67v6h2.84c1.56,0,2.53-.73,2.53-2.13,0-1.31-.85-1.95-2.3-1.95h0ZM46.26,92.55h-1.05v-1.66h1.05c.57,0,.93.22.93.78s-.37.88-.93.88h0ZM53.98,87.77v2.25h-2.31v-2.25h-1.7v6h1.7v-2.34h2.31v2.34h1.7v-6h-1.7ZM60.13,93.89c1.92,0,3.33-1.32,3.33-3.12s-1.41-3.12-3.33-3.12-3.33,1.32-3.33,3.12,1.41,3.12,3.33,3.12h0ZM60.13,92.49c-.91,0-1.62-.68-1.62-1.71s.71-1.71,1.62-1.71,1.62.68,1.62,1.71-.71,1.71-1.62,1.71h0ZM4.99,99.69H.59v6h1.67v-4.65h2.72v-1.35h0ZM10.01,99.69l-1.45,2.9-1.4-2.9h-1.79l2.33,4.32c-.22.32-.46.46-.8.46-.18,0-.37-.03-.6-.1l-.4,1.25c.37.15.72.22,1.06.22.9,0,1.68-.52,2.21-1.52l2.48-4.63h-1.65ZM19.4,105.69l-.02-6h-1.4l-2.06,3.46-2.11-3.46h-1.4v6h1.56v-3.11l1.54,2.52h.75l1.54-2.59v3.18h1.58ZM25.5,105.69h1.76l-2.66-6h-1.67l-2.65,6h1.73l.47-1.16h2.54l.47,1.16h0ZM22.99,103.27l.77-1.92.77,1.92h-1.54ZM32.18,99.69v2.25h-2.31v-2.25h-1.7v6h1.7v-2.34h2.31v2.34h1.7v-6h-1.7ZM35.38,105.69h1.6l2.47-3.51v3.51h1.67v-6h-1.59l-2.48,3.52v-3.52h-1.67v6h0ZM47.46,99.69h-5.35v1.35h1.84v4.65h1.67v-4.65h1.83v-1.35h0ZM52.77,105.69h1.77l-2.66-6h-1.67l-2.65,6h1.73l.47-1.16h2.54l.47,1.16h0ZM50.26,103.27l.77-1.92.77,1.92h-1.54ZM58.18,99.69h-2.74v6h1.7v-1.57h1.05c1.64,0,2.66-.85,2.66-2.21s-1.03-2.22-2.66-2.22h0ZM58.07,102.79h-.94v-1.76h.94c.7,0,1.05.32,1.05.88s-.35.87-1.05.87h0ZM65.83,99.69v2.25h-2.31v-2.25h-1.7v6h1.7v-2.34h2.31v2.34h1.7v-6h-1.7ZM72.09,101.6h-1.39v-1.91h-1.67v6h2.84c1.56,0,2.53-.73,2.53-2.13,0-1.31-.85-1.95-2.3-1.95h0ZM75.06,105.69h1.67v-6h-1.67v6h0ZM71.76,104.47h-1.05v-1.66h1.05c.57,0,.93.21.93.78s-.37.88-.93.88h0ZM81.1,99.33c1.24,0,1.77-.5,1.77-1.4h-1.14c0,.39-.21.59-.63.59s-.61-.2-.62-.59h-1.14c0,.9.51,1.4,1.76,1.4h0ZM78.24,105.69h1.6l2.47-3.51v3.51h1.67v-6h-1.59l-2.48,3.52v-3.52h-1.67v6h0ZM4.64,111.61l-1.45,2.9-1.4-2.9H0l2.33,4.32c-.22.32-.46.46-.8.46-.18,0-.37-.04-.6-.1l-.4,1.25c.37.15.72.22,1.06.22.9,0,1.68-.51,2.21-1.52l2.48-4.63h-1.65ZM11.06,111.61v2.25h-2.31v-2.25h-1.7v6h1.7v-2.34h2.31v2.34h1.7v-6h-1.7ZM14.26,117.61h1.6l2.47-3.51v3.51h1.67v-6h-1.59l-2.48,3.52v-3.52h-1.67v6h0ZM25.87,114.47c.51-.26.81-.71.81-1.3,0-.99-.84-1.56-2.27-1.56h-2.91v6h3.08c1.54,0,2.38-.66,2.38-1.71,0-.72-.39-1.2-1.09-1.42h0ZM23.17,112.83h1.08c.48,0,.72.21.72.59s-.24.59-.72.59h-1.08v-1.18h0ZM24.51,116.39h-1.34v-1.24h1.34c.49,0,.74.2.74.61s-.25.63-.74.63h0ZM29.77,116.3v-1.1h2.66v-1.27h-2.66v-1.01h3.02v-1.31h-4.7v6h4.82v-1.31h-3.14ZM36.84,111.61h-2.74v6h1.7v-1.57h1.05c1.64,0,2.66-.85,2.66-2.21s-1.03-2.22-2.66-2.22h0ZM36.73,114.7h-.94v-1.76h.94c.7,0,1.05.33,1.05.88s-.35.87-1.05.87h0ZM43.49,117.73c1.1,0,2-.4,2.58-1.13l-1.08-.98c-.38.45-.84.7-1.41.7-.98,0-1.67-.69-1.67-1.71s.69-1.71,1.67-1.71c.57,0,1.04.25,1.41.7l1.08-.98c-.58-.73-1.47-1.13-2.58-1.13-1.9,0-3.3,1.29-3.3,3.12s1.4,3.12,3.3,3.12h0ZM47.05,117.61h1.6l2.47-3.51v3.51h1.67v-6h-1.59l-2.48,3.52v-3.52h-1.67v6h0ZM59.13,111.61h-5.35v1.34h1.84v4.65h1.67v-4.65h1.83v-1.34h0ZM61.81,116.3v-1.1h2.66v-1.27h-2.66v-1.01h3.02v-1.31h-4.7v6h4.82v-1.31h-3.14ZM70.96,111.61h-5.35v1.34h1.84v4.65h1.67v-4.65h1.83v-1.34h0ZM42.86,4.13c3.12-1.12,6.28-2.07,9.47-2.78C56.22.49,60.12,0,64.05,0c3.92,0,7.82.5,11.71,1.36,2.19.49,4.36,1.09,6.52,1.77v6.29c-2.63-.91-5.23-1.67-7.81-2.25-3.49-.78-6.96-1.22-10.43-1.22-3.46,0-6.94.44-10.42,1.22-1.59.35-3.19.78-4.8,1.27v41.41c-1.99.56-3.97,1.21-5.96,1.92V4.13h0ZM82.28,18.01v17.67h0v9.97h0c0,.27-.04.55-.1.84-.2.9-.69,1.62-1.38,2.13-.64.47-1.4.72-2.21.72-.26,0-.56-.03-.89-.11-1.76-.39-3.5-.74-5.19-1.01-1.68-.27-3.39-.46-5.12-.57-1.71-.1-3.41-.1-5.1-.03-1.52.06-3.05.16-4.57.3v-5.97c1.44-.12,2.89-.22,4.33-.28,1.91-.08,3.8-.08,5.68.03,1.87.11,3.76.33,5.68.64.97.15,1.94.33,2.89.51v-5.78c-.29-.07-.59-.14-.87-.2-1.46-.32-2.96-.59-4.52-.78-1.57-.19-3.08-.29-4.55-.34-1.58-.05-3.14-.05-4.69-.03h-.05c-1.03,0-1.98-.4-2.69-1.07-.76-.72-1.22-1.76-1.22-2.81V15.2c1.99-.27,3.98-.42,5.97-.43v14.97c.96,0,1.92.01,2.86.05,1.74.06,3.44.17,5.07.36,1.52.18,3.09.46,4.7.8v-14.64c1.99.48,3.98,1.05,5.98,1.69h0ZM36.92,8.32c-2.31-.62-4.62-1.15-6.91-1.55-3.28-.57-6.54-.87-9.75-.79-3.21.08-6.45.55-9.72,1.32-1.36.32-2.73.69-4.09,1.11v41.44c-1.99.56-3.97,1.21-5.96,1.92V4.13c2.9-1.06,5.8-1.96,8.69-2.64C12.79.65,16.43.12,20.12.03c3.67-.09,7.29.24,10.89.86,1.98.34,3.95.77,5.91,1.26v6.17h0ZM36.92,22.97c-1.49-.4-2.94-.76-4.32-1.05-1.45-.31-2.91-.56-4.4-.73-1.52-.17-2.98-.27-4.4-.31-.85-.03-1.69-.04-2.53-.04v20.78c.9,0,1.8.01,2.69.04,1.68.05,3.33.15,4.91.33,1.63.19,3.28.47,4.93.82,1.06.22,2.09.47,3.11.72v6.17c-1.49-.4-2.94-.76-4.32-1.05-1.45-.31-2.91-.56-4.4-.73-1.51-.17-2.97-.27-4.4-.31-1.52-.05-3.03-.04-4.53-.02h-.06c-1.03,0-1.98-.39-2.69-1.06-.73-.69-1.2-1.65-1.22-2.75v-24.91c0-1.04.42-2.02,1.1-2.74.7-.74,1.68-1.22,2.79-1.23,1.6-.02,3.2-.02,4.78.02,1.69.05,3.33.15,4.91.33,1.63.19,3.28.47,4.93.82,1.06.22,2.09.47,3.11.72v6.17h0Z"/>
</svg>